<svg width="42" height="42" viewBox="0 0 42 42" fill="none" xmlns="http://www.w3.org/2000/svg">
<path d="M23.279 22.9994C22.5588 22.6698 21.8172 22.3861 21.081 22.0921C20.4415 21.8368 19.7945 21.6029 19.2043 21.2368C18.2826 20.6652 18.2902 19.7228 18.7526 19.0685C18.9839 18.7415 19.3043 18.5229 19.6688 18.3707C20.4073 18.0626 21.171 18.045 21.9447 18.1991C22.7202 18.3534 23.4333 18.6586 24.0881 19.1024C24.2857 19.2362 24.4642 19.2071 24.5865 19.0155C24.8119 18.6623 25.0303 18.304 25.2442 17.9437C25.3434 17.7765 25.294 17.597 25.1313 17.4852C25.0234 17.4112 24.9127 17.3406 24.8004 17.2729C23.6527 16.5806 22.4161 16.1874 21.1487 16.1675C20.3979 16.1662 19.7462 16.262 19.1216 16.5131C17.6449 17.1068 16.6738 18.1195 16.5318 19.7727C16.4644 20.5558 16.656 21.2812 17.1307 21.9181C17.5507 22.4811 18.1026 22.8921 18.7303 23.1821C19.4258 23.5033 20.1428 23.7791 20.8553 24.0623C21.4915 24.315 22.1366 24.5465 22.7271 24.8997C23.3288 25.2601 23.7569 25.7343 23.8209 26.477C23.8774 27.13 23.5942 27.611 23.1039 27.99C22.5163 28.4443 21.829 28.6264 21.0989 28.6524C20.2633 28.6823 19.4872 28.4474 18.7477 28.0777C18.2658 27.8367 17.8092 27.5559 17.4005 27.2014C17.2313 27.0547 17.0258 27.0644 16.9069 27.2339C16.6536 27.595 16.4085 27.9619 16.1676 28.3314C16.0694 28.4824 16.1062 28.6487 16.2447 28.7634C16.3253 28.8303 16.4085 28.8944 16.493 28.9566C17.7375 29.8709 19.0975 30.4948 20.6627 30.579C21.8867 30.6449 23.0357 30.3835 24.0563 29.6872C25.0917 28.9813 25.7276 28.0249 25.7588 26.7355C25.7814 25.7994 25.5247 24.9509 24.9119 24.2258C24.461 23.6922 23.906 23.286 23.2785 22.9989L23.279 22.9994Z" fill="#2F2F88"/>
<path d="M25.0116 11.335C24.6872 10.1808 24.1209 9.17484 23.164 8.42268C22.4977 7.89884 21.7434 7.60858 20.886 7.63719C20.2706 7.65766 19.705 7.85082 19.1867 8.17887C18.3117 8.73236 17.717 9.521 17.3013 10.4553C17.0509 11.0182 16.8906 11.6066 16.8105 12.2221H25.2082C25.142 11.9197 25.0924 11.6229 25.0116 11.3347V11.335Z" fill="#2F2F88"/>
<path d="M21.0001 0C9.40201 0 0 9.40201 0 21.0001C0 32.5983 9.40201 42.0003 21.0001 42.0003C32.5983 42.0003 42.0003 32.5983 42.0003 21.0001C42.0003 9.40201 32.598 0 21.0001 0ZM34.0771 12.9951C34.028 13.8152 33.9858 14.6359 33.9372 15.4563C33.8808 16.4118 33.8197 17.3671 33.763 18.3224C33.7144 19.1428 33.6714 19.9632 33.6228 20.7836C33.5664 21.7392 33.5058 22.6945 33.4491 23.6497C33.4095 24.3174 33.3746 24.9851 33.3352 25.6527C33.2866 26.4728 33.2347 27.293 33.1861 28.1131C33.147 28.7763 33.1124 29.4398 33.0728 30.103C33.0305 30.8142 32.9969 31.5259 32.9381 32.2358C32.8492 33.3074 31.9196 34.3033 30.8567 34.4794C30.6551 34.5128 30.4488 34.5317 30.2449 34.5317C24.0607 34.5343 17.8765 34.534 11.6923 34.5338C10.3555 34.5338 9.2553 33.5955 9.07133 32.2736C9.01175 31.8464 9.00939 31.4107 8.98288 30.979C8.94063 30.2898 8.89969 29.6004 8.85927 28.9109C8.82936 28.4005 8.80206 27.8898 8.77188 27.3793C8.73199 26.703 8.69 26.027 8.64984 25.3506C8.62019 24.8533 8.59211 24.3557 8.56271 23.8584C8.52177 23.1648 8.47952 22.4711 8.43884 21.7775C8.40918 21.2712 8.38189 20.765 8.35223 20.259C8.31261 19.5827 8.27114 18.9066 8.23099 18.2303C8.20107 17.7285 8.1722 17.2267 8.14254 16.7249C8.1016 16.0355 8.05987 15.3463 8.01972 14.6569C7.9856 14.0722 7.94624 13.4877 7.92157 12.9025C7.90529 12.5193 8.20789 12.2275 8.60129 12.2275C10.6218 12.2269 12.6424 12.2275 14.6629 12.2275H14.8267C14.9952 10.7932 15.444 9.481 16.2638 8.30788C16.8955 7.40377 17.6802 6.66132 18.6893 6.19968C20.6109 5.32076 22.4543 5.50605 24.1778 6.71538C25.3743 7.55493 26.1498 8.72543 26.666 10.0775C26.9284 10.7651 27.0891 11.4782 27.1757 12.2275H27.3407C29.3482 12.2275 31.3556 12.2275 33.363 12.2275C33.8359 12.2275 34.1049 12.5214 34.0766 12.9948L34.0771 12.9951Z" fill="#2F2F88"/>
</svg>
